{"title":"The.Sitter.2011.BRRip.XviD.Ac3.Feel-Free","uid":7106027,"size":1277368208,"categoryP":"video","categoryS":"movies","magnet":"?xt=urn:btih:d36d3df5398f28d7f1473f6d7fb179b16ccfc3a7&amp;dn=The.Sitter.2011.BRRip.XviD.Ac3.Feel-Free&amp;tr=udp%3A%2F%2Ftracker.openbittorrent.com%3A80&amp;tr=udp%3A%2F%2Fopen.demonii.com%3A1337&amp;tr=udp%3A%2F%2Ftracker.coppersurfer.tk%3A6969&amp;tr=udp%3A%2F%2Fexodus.desync.com%3A6969","seeders":0,"leechers":0,"uploader":".BONE.","files":10,"time":1331875541,"description":"Genre:Comedy\nLanguage:English &lt;a href=&quot;\nhttp://www.imdb.com/title/tt1366344/&quot; rel=&quot;nofollow&quot; target=&quot;_NEW&quot;&gt;\nhttp://www.imdb.com/title/tt1366344/&lt;/a&gt;\nSource:1080p.BluRay.X264-AMIABLE Thanks!\nEncoder:Boom24\n\nFormat : AVI\nFormat/Info : Audio Video Interleave\nFile size : 1.19 GiB\nDuration : 1h 27mn\nOverall bit rate : 1 952 Kbps\n\nVideo\nID : 0\nFormat : MPEG-4 Visual\nFormat profile : Advanced Simple@L5\nFormat settings, BVOP : 1\nFormat settings, QPel : No\nFormat settings, GMC : No warppoints\nFormat settings, Matrix : Default (H.263)\nCodec ID : XVID\nCodec ID/Hint : XviD\nDuration : 1h 27mn\nBit rate : 1 495 Kbps\nWidth : 640 pixels\nHeight : 344 pixels\nDisplay aspect ratio : 1.860\nFrame rate : 23.976 fps\nColor space : YUV\nChroma subsampling : 4:2:0\nBit depth : 8 bits\nScan type : Progressive\nCompression mode : Lossy\nBits/(Pixel*Frame) : 0.283\nStream size : 931 MiB (77%)\nWriting library : XviD 1.2.1 (UTC 2008-12-04)\n\nAudio\nID : 1\nFormat : AC-3\nFormat/Info : Audio Coding 3\nMode extension : CM (complete main)\nCodec ID : 2000\nDuration : 1h 27mn\nBit rate mode : Constant\nBit rate : 448 Kbps\nChannel(s) : 6 channels\nChannel positions : Front: L C R, Side: L R, LFE\nSampling rate : 48.0 KHz\nBit depth : 16 bits\nCompression mode : Lossy\nStream size : 279 MiB (23%)\nAlignment : Aligned on interleaves\nInterleave, duration : 42 ms (1.00 video frame)\nInterleave, preload duration : 512 ms\n\n\nPlot:\nA comedy about a college student on suspension who is coaxed into babysitting the kids next door, though he is fully unprepared for the wild night ahead of him\n","torrent":{"xt":"urn:btih:d36d3df5398f28d7f1473f6d7fb179b16ccfc3a7","amp;dn":"The.Sitter.2011.BRRip.XviD.Ac3.Feel-Free","amp;tr":["udp%3A%2F%2Ftracker.openbittorrent.com%3A80","udp%3A%2F%2Fopen.demonii.com%3A1337","udp%3A%2F%2Ftracker.coppersurfer.tk%3A6969","udp%3A%2F%2Fexodus.desync.com%3A6969"],"infoHash":"d36d3df5398f28d7f1473f6d7fb179b16ccfc3a7","infoHashBuffer":{"type":"Buffer","data":[211,109,61,245,57,143,40,215,241,71,63,109,127,177,121,177,108,207,195,167]},"announce":[],"urlList":[]}}